<?xml version="1.0" encoding="utf-8"?>
<!-- Generator: Adobe Illustrator 27.7.0, SVG Export Plug-In . SVG Version: 6.00 Build 0)  -->
<svg version="1.1" id="Layer_1" xmlns="http://www.w3.org/2000/svg" xmlns:xlink="http://www.w3.org/1999/xlink" x="0px" y="0px"
	 viewBox="0 0 150 150" style="enable-background:new 0 0 150 150;" xml:space="preserve">
<g>
	<path d="M92.3,145.2c-5.7,0.2-10.7-1.6-15.3-4.8c-1.2-0.8-2.1-0.9-3.4-0.1c-3.8,2.6-8.1,4.4-12.7,4.8c-7.2,0.7-13.9-0.8-19.8-5.3
		c-7.2-5.6-11.6-12.9-13-21.9c-0.3-1.9-0.2-3.9-0.4-5.8c0-0.5-0.4-1.2-0.8-1.3c-6.5-2.9-11.6-7.4-15.5-13.4S5.7,84.8,4.6,77.8
		c-0.8-5.2,0.5-10.1,2-14.9c3.3-10.6,9.8-18.7,20.1-23.4c0.4-0.2,0.8-1,0.8-1.6c-0.1-3.8,0.2-7.5,1.6-11.1
		C33.2,16.5,39.8,8.9,50.8,5.7c5.7-1.7,11.3-1.2,16.7,1c2.3,0.9,4.4,2.2,6.5,3.4c0.9,0.5,1.6,0.5,2.5-0.1c5-3.1,10.3-5.6,16.2-5.4
		c10.3,0.4,18.4,5,24,13.7c1.7,2.7,3.1,5.7,4.3,8.7c0.8,2.2,1,4.7,1.4,7.1c0.2,1.5,0.1,3,0.4,4.5c0.1,0.5,0.9,1.1,1.5,1.4
		c3.8,2,7.3,4.4,10.3,7.5c3.7,3.9,6.8,8.2,8.4,13.3c1.2,3.7,1.9,7.6,2.3,11.5c1,10-2,19-8,27c-3.3,4.4-7.5,7.8-12.5,10.2
		c-2.5,1.2-2.2,1.2-2.3,4c-0.1,4.8-0.7,9.5-3.2,13.8c-1.3,2.2-2.5,4.5-4,6.6c-3.2,4.6-7.8,7.6-12.9,9.6
		C99.2,144.9,95.7,145.4,92.3,145.2z M70.5,75.4c0-6.5,0-13,0-19.6c0-11.5,0-22.9-0.1-34.4c0-0.9-0.4-2-1-2.6
		c-7-5.8-16.4-5.7-23.4,0c-7.3,6-9.4,13.8-8.1,22.8c1,7,4.8,12.3,10.7,16.1c0.8,0.5,1.5,1.1,2.2,1.7c1.5,1.5,1.6,3.9,0.4,5.5
		c-1.3,1.8-3.9,2.9-5.5,2.1c-3.4-1.7-6.5-4-9.1-6.9c-2.7-3-4.6-6.5-6.2-10.1c-0.4-1-0.9-1.3-1.9-0.7c-4.1,2.5-7.5,5.6-9.8,9.8
		c-3.6,6.6-5.5,13.6-3.9,21.2c0.9,4.5,2.3,8.8,5.1,12.5c3.5,4.5,7.5,8.4,13.2,10c4.1,1.2,4.9,3,4.5,7.3c-0.3,2.7-0.1,5.6,0.4,8.4
		c0.6,3.3,2.5,6.2,4.5,8.9c3.8,5.2,8.8,8.3,15.4,8.2c4.1-0.1,7.9-1.6,11.3-4c1-0.7,1.3-1.5,1.3-2.7C70.5,111.1,70.5,93.2,70.5,75.4z
		 M79.9,74.9L79.9,74.9C80,84,80,93.1,80,102.2c0,8.9,0,17.7,0,26.6c0,0.8,0.3,1.8,0.8,2.3c2.9,2.7,6.6,4.2,10.5,4.5
		c5.1,0.5,9.8-1.3,13.7-4.6c3.8-3.2,6.2-7.3,7.3-12.2c0.9-4.2,1-8.3-0.1-12.4c-1.6-5.9-4.9-10.7-10.3-14c-0.9-0.5-1.7-1.2-2.4-2
		c-1.3-1.4-1.4-3.3-0.4-4.9c1.1-1.8,3-2.8,4.7-2.3c1.4,0.4,2.8,0.9,4,1.7c5.4,3.5,9.3,8.3,11.9,14.2c0.9,2,1.2,2.2,3,0.8
		c2.2-1.7,4.4-3.4,6.3-5.4c4-4.2,6.1-9.5,6.6-15.2c0.3-3.4,0.2-7-0.3-10.4c-0.4-2.9-1.3-5.9-2.7-8.4c-3.4-6.2-8.3-10.8-15.4-12.8
		c-1.9-0.5-3.8-1.5-4.2-3.7c-0.3-1.4,0-2.9,0.1-4.3c0.4-6.6-1.3-12.6-5.4-17.8c-3.1-3.9-7.1-6.7-12.1-7.3c-4.7-0.6-9.1,0.5-13.1,3.2
		c-1.7,1.1-2.5,2.3-2.4,4.4C79.9,39.8,79.9,57.4,79.9,74.9z"/>
</g>
</svg>
