<?xml version="1.0" encoding="utf-8"?>
<!-- Generator: Adobe Illustrator 27.7.0, SVG Export Plug-In . SVG Version: 6.00 Build 0)  -->
<svg version="1.1" id="Layer_1" xmlns="http://www.w3.org/2000/svg" xmlns:xlink="http://www.w3.org/1999/xlink" x="0px" y="0px"
	 viewBox="0 0 150 150" style="enable-background:new 0 0 150 150;" xml:space="preserve">
<path d="M61.2,90.4c-10.6,0-21.3-0.1-31.9,0c-2.4,0-4.2-0.7-5.2-3c-0.9-2.1-0.3-3.9,1-5.6c5.8-7.3,11.6-14.6,17.4-21.9
	c6.5-8.3,13-16.7,19.6-25c6.5-8.2,13-16.5,19.5-24.7c1-1.3,2-2.6,3.2-3.8c2.3-2.4,5.1-2.5,7.3-0.2C92.7,6.8,93.1,8,93.1,9
	c0,3.4-0.1,6.8-0.4,10.1c-0.3,3.3-0.8,6.5-1.2,9.8c-0.5,3.9-1.1,7.8-1.7,11.8c-0.5,3.1-1,6.3-1.4,9.4c-0.3,2.5-0.6,5.1-0.8,7.7
	c-0.1,1.1,0.5,1.5,1.4,1.5c2.1,0,4.2,0,6.3,0c8.6,0.1,17.2,0.1,25.8,0.1c1.9,0,3.7,0.4,4.5,2.2c0.9,2.1,1.2,4.4-0.2,6.3
	c-1.8,2.5-3.8,4.8-5.7,7.3c-9.1,11.6-18.3,23.2-27.4,34.8c-6.8,8.6-13.6,17.2-20.3,25.8c-2,2.6-4,5.2-6.1,7.6
	c-2.2,2.5-5.9,2.5-8.1,0c-0.5-0.5-1-1.4-0.9-2.1c0.2-3.6,0.6-7.2,1-10.8c0.4-3.3,0.8-6.5,1.2-9.8c0.6-4.8,1.2-9.7,1.8-14.5
	c0.4-3.2,0.6-6.5,0.9-9.7c0.2-1.9,0.4-3.9,0.7-5.8C61.9,90.7,61.5,90.5,61.2,90.4z"/>
</svg>
