<?xml version="1.0" encoding="utf-8"?>
<!-- Generator: Adobe Illustrator 27.7.0, SVG Export Plug-In . SVG Version: 6.00 Build 0)  -->
<svg version="1.1" id="Layer_1" xmlns="http://www.w3.org/2000/svg" xmlns:xlink="http://www.w3.org/1999/xlink" x="0px" y="0px"
	 viewBox="0 0 150 150" style="enable-background:new 0 0 150 150;" xml:space="preserve">
<g>
	<polygon points="88.6,18.6 82.1,17 82.1,17 	"/>
	<path d="M145.7,67.8c-0.7-5.3-1.5-10.6-3.1-15.6c-2.9-9-7.4-17.1-13.8-24.3c-8.7-9.9-19.4-16.7-31.8-21l0,0
		c-7.2-2.2-14.6-3.4-22.1-3.4C69.8,4,64.7,4.3,59.7,4.9c-6,0.7-11.4,3.2-16.8,5.8c-8.1,3.9-15.4,9.2-21.4,15.9
		c-9.7,11-16.1,23.7-17.9,38.3C2.8,71,2.7,77.4,3.5,83.5c1.2,9.1,3.9,17.8,8.6,25.9c5.8,10.1,13.4,18.3,22.9,24.7
		c9.4,6.3,19.8,10.3,31.1,11.7c5.3,0.6,10.7,0.7,16,0.2s10.5-1.8,15.6-3.6c6.9-2.4,13.4-5.6,19.3-9.9c13.6-10,22.7-23.1,26.9-39.4
		c1.1-4.4,1.9-8.9,2.3-13.5C146.4,75.8,146.2,71.7,145.7,67.8z M17.6,89.2c-0.5-3.1-1.3-6.3-1.6-9.4c-0.3-3.2-0.2-6.4,0.1-9.6
		c0.4-3.4,1-6.8,1.8-10.1c3.1-12.8,10.2-23,20.5-31.2c6.6-5.2,13.9-8.7,22-10.8c5.9-1.5,12-1.5,18.1-1.4c1.1,0.1,2.3,0.2,3.4,0.3
		l0,0c0.6,0.1,1.3,0.3,1.9,0.4c3.7,0.9,7.4,1.8,11,2.7l-6.5-1.6l6.5,1.6c5.8,2.5,11.4,5.3,16.4,9.4c5.7,4.7,10.3,10.2,14.1,16.5
		c3.5,5.7,5.2,11.9,6.4,18.3c0.6,3.2,0.7,6.5,0.8,9.7c0.3,5.6-0.6,11.1-2,16.5c-1.3,4.9-3.2,9.5-5.8,13.9
		c-7.5,12.5-18.3,20.9-32.1,25.6c-7.4,2.5-15.1,3.7-22.9,3c-6.1-0.5-12.1-2.2-17.9-4.6c-11.9-5-21.2-13-27.8-24
		c-0.9-1.6-1.9-3.1-2.9-4.7L19,94.5"/>
</g>
<path d="M115.3,73.4C115.9,97,96,114,76.1,114.6C52,115.3,32.9,95.5,33.5,73.4c0.6-21.1,15.8-39.9,41.2-40.2
	C96.7,33,115.3,50.6,115.3,73.4z M73.5,102.9c17.5,0.5,29.6-13.3,30.4-27.4c0.9-17.4-13.1-31.3-30.2-31c-15.3,0.2-27.7,12.6-28.6,28
	C44.1,89.1,59.5,103.5,73.5,102.9z"/>
</svg>
